<svg version="1.1" xmlns="http://www.w3.org/2000/svg" xmlns:xlink="http://www.w3.org/1999/xlink" width="955" height="771"><defs/><g><text fill="#eeeeee" stroke="none" font-family="Arial" font-size="24px" font-style="normal" font-weight="normal" text-decoration="none" x="0" y="0">UNREGISTERED</text><text fill="#eeeeee" stroke="none" font-family="Arial" font-size="24px" font-style="normal" font-weight="normal" text-decoration="none" x="0" y="30">UNREGISTERED</text><text fill="#eeeeee" stroke="none" font-family="Arial" font-size="24px" font-style="normal" font-weight="normal" text-decoration="none" x="0" y="60">UNREGISTERED</text><text fill="#eeeeee" stroke="none" font-family="Arial" font-size="24px" font-style="normal" font-weight="normal" text-decoration="none" x="0" y="90">UNREGISTERED</text><text fill="#eeeeee" stroke="none" font-family="Arial" font-size="24px" font-style="normal" font-weight="normal" text-decoration="none" x="0" y="120">UNREGISTERED</text><text fill="#eeeeee" stroke="none" font-family="Arial" font-size="24px" font-style="normal" font-weight="normal" text-decoration="none" x="0" y="150">UNREGISTERED</text><text fill="#eeeeee" stroke="none" font-family="Arial" font-size="24px" font-style="normal" font-weight="normal" text-decoration="none" x="0" y="180">UNREGISTERED</text><text fill="#eeeeee" stroke="none" font-family="Arial" font-size="24px" font-style="normal" font-weight="normal" text-decoration="none" x="0" y="210">UNREGISTERED</text><text fill="#eeeeee" stroke="none" font-family="Arial" font-size="24px" font-style="normal" font-weight="normal" text-decoration="none" x="0" y="240">UNREGISTERED</text><text fill="#eeeeee" stroke="none" font-family="Arial" font-size="24px" font-style="normal" font-weight="normal" text-decoration="none" x="0" y="270">UNREGISTERED</text><text fill="#eeeeee" stroke="none" font-family="Arial" font-size="24px" font-style="normal" font-weight="normal" text-decoration="none" x="0" y="300">UNREGISTERED</text><text fill="#eeeeee" stroke="none" font-family="Arial" font-size="24px" font-style="normal" font-weight="normal" text-decoration="none" x="0" y="330">UNREGISTERED</text><text fill="#eeeeee" stroke="none" font-family="Arial" font-size="24px" font-style="normal" font-weight="normal" text-decoration="none" x="0" y="360">UNREGISTERED</text><text fill="#eeeeee" stroke="none" font-family="Arial" font-size="24px" font-style="normal" font-weight="normal" text-decoration="none" x="0" y="390">UNREGISTERED</text><text fill="#eeeeee" stroke="none" font-family="Arial" font-size="24px" font-style="normal" font-weight="normal" text-decoration="none" x="0" y="420">UNREGISTERED</text><text fill="#eeeeee" stroke="none" font-family="Arial" font-size="24px" font-style="normal" font-weight="normal" text-decoration="none" x="0" y="450">UNREGISTERED</text><text fill="#eeeeee" stroke="none" font-family="Arial" font-size="24px" font-style="normal" font-weight="normal" text-decoration="none" x="0" y="480">UNREGISTERED</text><text fill="#eeeeee" stroke="none" font-family="Arial" font-size="24px" font-style="normal" font-weight="normal" text-decoration="none" x="0" y="510">UNREGISTERED</text><text fill="#eeeeee" stroke="none" font-family="Arial" font-size="24px" font-style="normal" font-weight="normal" text-decoration="none" x="0" y="540">UNREGISTERED</text><text fill="#eeeeee" stroke="none" font-family="Arial" font-size="24px" font-style="normal" font-weight="normal" text-decoration="none" x="0" y="570">UNREGISTERED</text><text fill="#eeeeee" stroke="none" font-family="Arial" font-size="24px" font-style="normal" font-weight="normal" text-decoration="none" x="0" y="600">UNREGISTERED</text><text fill="#eeeeee" stroke="none" font-family="Arial" font-size="24px" font-style="normal" font-weight="normal" text-decoration="none" x="0" y="630">UNREGISTERED</text><text fill="#eeeeee" stroke="none" font-family="Arial" font-size="24px" font-style="normal" font-weight="normal" text-decoration="none" x="0" y="660">UNREGISTERED</text><text fill="#eeeeee" stroke="none" font-family="Arial" font-size="24px" font-style="normal" font-weight="normal" text-decoration="none" x="0" y="690">UNREGISTERED</text><text fill="#eeeeee" stroke="none" font-family="Arial" font-size="24px" font-style="normal" font-weight="normal" text-decoration="none" x="0" y="720">UNREGISTERED</text><text fill="#eeeeee" stroke="none" font-family="Arial" font-size="24px" font-style="normal" font-weight="normal" text-decoration="none" x="0" y="750">UNREGISTERED</text><text fill="#eeeeee" stroke="none" font-family="Arial" font-size="24px" font-style="normal" font-weight="normal" text-decoration="none" x="200" y="0">UNREGISTERED</text><text fill="#eeeeee" stroke="none" font-family="Arial" font-size="24px" font-style="normal" font-weight="normal" text-decoration="none" x="200" y="30">UNREGISTERED</text><text fill="#eeeeee" stroke="none" font-family="Arial" font-size="24px" font-style="normal" font-weight="normal" text-decoration="none" x="200" y="60">UNREGISTERED</text><text fill="#eeeeee" stroke="none" font-family="Arial" font-size="24px" font-style="normal" font-weight="normal" text-decoration="none" x="200" y="90">UNREGISTERED</text><text fill="#eeeeee" stroke="none" font-family="Arial" font-size="24px" font-style="normal" font-weight="normal" text-decoration="none" x="200" y="120">UNREGISTERED</text><text fill="#eeeeee" stroke="none" font-family="Arial" font-size="24px" font-style="normal" font-weight="normal" text-decoration="none" x="200" y="150">UNREGISTERED</text><text fill="#eeeeee" stroke="none" font-family="Arial" font-size="24px" font-style="normal" font-weight="normal" text-decoration="none" x="200" y="180">UNREGISTERED</text><text fill="#eeeeee" stroke="none" font-family="Arial" font-size="24px" font-style="normal" font-weight="normal" text-decoration="none" x="200" y="210">UNREGISTERED</text><text fill="#eeeeee" stroke="none" font-family="Arial" font-size="24px" font-style="normal" font-weight="normal" text-decoration="none" x="200" y="240">UNREGISTERED</text><text fill="#eeeeee" stroke="none" font-family="Arial" font-size="24px" font-style="normal" font-weight="normal" text-decoration="none" x="200" y="270">UNREGISTERED</text><text fill="#eeeeee" stroke="none" font-family="Arial" font-size="24px" font-style="normal" font-weight="normal" text-decoration="none" x="200" y="300">UNREGISTERED</text><text fill="#eeeeee" stroke="none" font-family="Arial" font-size="24px" font-style="normal" font-weight="normal" text-decoration="none" x="200" y="330">UNREGISTERED</text><text fill="#eeeeee" stroke="none" font-family="Arial" font-size="24px" font-style="normal" font-weight="normal" text-decoration="none" x="200" y="360">UNREGISTERED</text><text fill="#eeeeee" stroke="none" font-family="Arial" font-size="24px" font-style="normal" font-weight="normal" text-decoration="none" x="200" y="390">UNREGISTERED</text><text fill="#eeeeee" stroke="none" font-family="Arial" font-size="24px" font-style="normal" font-weight="normal" text-decoration="none" x="200" y="420">UNREGISTERED</text><text fill="#eeeeee" stroke="none" font-family="Arial" font-size="24px" font-style="normal" font-weight="normal" text-decoration="none" x="200" y="450">UNREGISTERED</text><text fill="#eeeeee" stroke="none" font-family="Arial" font-size="24px" font-style="normal" font-weight="normal" text-decoration="none" x="200" y="480">UNREGISTERED</text><text fill="#eeeeee" stroke="none" font-family="Arial" font-size="24px" font-style="normal" font-weight="normal" text-decoration="none" x="200" y="510">UNREGISTERED</text><text fill="#eeeeee" stroke="none" font-family="Arial" font-size="24px" font-style="normal" font-weight="normal" text-decoration="none" x="200" y="540">UNREGISTERED</text><text fill="#eeeeee" stroke="none" font-family="Arial" font-size="24px" font-style="normal" font-weight="normal" text-decoration="none" x="200" y="570">UNREGISTERED</text><text fill="#eeeeee" stroke="none" font-family="Arial" font-size="24px" font-style="normal" font-weight="normal" text-decoration="none" x="200" y="600">UNREGISTERED</text><text fill="#eeeeee" stroke="none" font-family="Arial" font-size="24px" font-style="normal" font-weight="normal" text-decoration="none" x="200" y="630">UNREGISTERED</text><text fill="#eeeeee" stroke="none" font-family="Arial" font-size="24px" font-style="normal" font-weight="normal" text-decoration="none" x="200" y="660">UNREGISTERED</text><text fill="#eeeeee" stroke="none" font-family="Arial" font-size="24px" font-style="normal" font-weight="normal" text-decoration="none" x="200" y="690">UNREGISTERED</text><text fill="#eeeeee" stroke="none" font-family="Arial" font-size="24px" font-style="normal" font-weight="normal" text-decoration="none" x="200" y="720">UNREGISTERED</text><text fill="#eeeeee" stroke="none" font-family="Arial" font-size="24px" font-style="normal" font-weight="normal" text-decoration="none" x="200" y="750">UNREGISTERED</text><text fill="#eeeeee" stroke="none" font-family="Arial" font-size="24px" font-style="normal" font-weight="normal" text-decoration="none" x="400" y="0">UNREGISTERED</text><text fill="#eeeeee" stroke="none" font-family="Arial" font-size="24px" font-style="normal" font-weight="normal" text-decoration="none" x="400" y="30">UNREGISTERED</text><text fill="#eeeeee" stroke="none" font-family="Arial" font-size="24px" font-style="normal" font-weight="normal" text-decoration="none" x="400" y="60">UNREGISTERED</text><text fill="#eeeeee" stroke="none" font-family="Arial" font-size="24px" font-style="normal" font-weight="normal" text-decoration="none" x="400" y="90">UNREGISTERED</text><text fill="#eeeeee" stroke="none" font-family="Arial" font-size="24px" font-style="normal" font-weight="normal" text-decoration="none" x="400" y="120">UNREGISTERED</text><text fill="#eeeeee" stroke="none" font-family="Arial" font-size="24px" font-style="normal" font-weight="normal" text-decoration="none" x="400" y="150">UNREGISTERED</text><text fill="#eeeeee" stroke="none" font-family="Arial" font-size="24px" font-style="normal" font-weight="normal" text-decoration="none" x="400" y="180">UNREGISTERED</text><text fill="#eeeeee" stroke="none" font-family="Arial" font-size="24px" font-style="normal" font-weight="normal" text-decoration="none" x="400" y="210">UNREGISTERED</text><text fill="#eeeeee" stroke="none" font-family="Arial" font-size="24px" font-style="normal" font-weight="normal" text-decoration="none" x="400" y="240">UNREGISTERED</text><text fill="#eeeeee" stroke="none" font-family="Arial" font-size="24px" font-style="normal" font-weight="normal" text-decoration="none" x="400" y="270">UNREGISTERED</text><text fill="#eeeeee" stroke="none" font-family="Arial" font-size="24px" font-style="normal" font-weight="normal" text-decoration="none" x="400" y="300">UNREGISTERED</text><text fill="#eeeeee" stroke="none" font-family="Arial" font-size="24px" font-style="normal" font-weight="normal" text-decoration="none" x="400" y="330">UNREGISTERED</text><text fill="#eeeeee" stroke="none" font-family="Arial" font-size="24px" font-style="normal" font-weight="normal" text-decoration="none" x="400" y="360">UNREGISTERED</text><text fill="#eeeeee" stroke="none" font-family="Arial" font-size="24px" font-style="normal" font-weight="normal" text-decoration="none" x="400" y="390">UNREGISTERED</text><text fill="#eeeeee" stroke="none" font-family="Arial" font-size="24px" font-style="normal" font-weight="normal" text-decoration="none" x="400" y="420">UNREGISTERED</text><text fill="#eeeeee" stroke="none" font-family="Arial" font-size="24px" font-style="normal" font-weight="normal" text-decoration="none" x="400" y="450">UNREGISTERED</text><text fill="#eeeeee" stroke="none" font-family="Arial" font-size="24px" font-style="normal" font-weight="normal" text-decoration="none" x="400" y="480">UNREGISTERED</text><text fill="#eeeeee" stroke="none" font-family="Arial" font-size="24px" font-style="normal" font-weight="normal" text-decoration="none" x="400" y="510">UNREGISTERED</text><text fill="#eeeeee" stroke="none" font-family="Arial" font-size="24px" font-style="normal" font-weight="normal" text-decoration="none" x="400" y="540">UNREGISTERED</text><text fill="#eeeeee" stroke="none" font-family="Arial" font-size="24px" font-style="normal" font-weight="normal" text-decoration="none" x="400" y="570">UNREGISTERED</text><text fill="#eeeeee" stroke="none" font-family="Arial" font-size="24px" font-style="normal" font-weight="normal" text-decoration="none" x="400" y="600">UNREGISTERED</text><text fill="#eeeeee" stroke="none" font-family="Arial" font-size="24px" font-style="normal" font-weight="normal" text-decoration="none" x="400" y="630">UNREGISTERED</text><text fill="#eeeeee" stroke="none" font-family="Arial" font-size="24px" font-style="normal" font-weight="normal" text-decoration="none" x="400" y="660">UNREGISTERED</text><text fill="#eeeeee" stroke="none" font-family="Arial" font-size="24px" font-style="normal" font-weight="normal" text-decoration="none" x="400" y="690">UNREGISTERED</text><text fill="#eeeeee" stroke="none" font-family="Arial" font-size="24px" font-style="normal" font-weight="normal" text-decoration="none" x="400" y="720">UNREGISTERED</text><text fill="#eeeeee" stroke="none" font-family="Arial" font-size="24px" font-style="normal" font-weight="normal" text-decoration="none" x="400" y="750">UNREGISTERED</text><text fill="#eeeeee" stroke="none" font-family="Arial" font-size="24px" font-style="normal" font-weight="normal" text-decoration="none" x="600" y="0">UNREGISTERED</text><text fill="#eeeeee" stroke="none" font-family="Arial" font-size="24px" font-style="normal" font-weight="normal" text-decoration="none" x="600" y="30">UNREGISTERED</text><text fill="#eeeeee" stroke="none" font-family="Arial" font-size="24px" font-style="normal" font-weight="normal" text-decoration="none" x="600" y="60">UNREGISTERED</text><text fill="#eeeeee" stroke="none" font-family="Arial" font-size="24px" font-style="normal" font-weight="normal" text-decoration="none" x="600" y="90">UNREGISTERED</text><text fill="#eeeeee" stroke="none" font-family="Arial" font-size="24px" font-style="normal" font-weight="normal" text-decoration="none" x="600" y="120">UNREGISTERED</text><text fill="#eeeeee" stroke="none" font-family="Arial" font-size="24px" font-style="normal" font-weight="normal" text-decoration="none" x="600" y="150">UNREGISTERED</text><text fill="#eeeeee" stroke="none" font-family="Arial" font-size="24px" font-style="normal" font-weight="normal" text-decoration="none" x="600" y="180">UNREGISTERED</text><text fill="#eeeeee" stroke="none" font-family="Arial" font-size="24px" font-style="normal" font-weight="normal" text-decoration="none" x="600" y="210">UNREGISTERED</text><text fill="#eeeeee" stroke="none" font-family="Arial" font-size="24px" font-style="normal" font-weight="normal" text-decoration="none" x="600" y="240">UNREGISTERED</text><text fill="#eeeeee" stroke="none" font-family="Arial" font-size="24px" font-style="normal" font-weight="normal" text-decoration="none" x="600" y="270">UNREGISTERED</text><text fill="#eeeeee" stroke="none" font-family="Arial" font-size="24px" font-style="normal" font-weight="normal" text-decoration="none" x="600" y="300">UNREGISTERED</text><text fill="#eeeeee" stroke="none" font-family="Arial" font-size="24px" font-style="normal" font-weight="normal" text-decoration="none" x="600" y="330">UNREGISTERED</text><text fill="#eeeeee" stroke="none" font-family="Arial" font-size="24px" font-style="normal" font-weight="normal" text-decoration="none" x="600" y="360">UNREGISTERED</text><text fill="#eeeeee" stroke="none" font-family="Arial" font-size="24px" font-style="normal" font-weight="normal" text-decoration="none" x="600" y="390">UNREGISTERED</text><text fill="#eeeeee" stroke="none" font-family="Arial" font-size="24px" font-style="normal" font-weight="normal" text-decoration="none" x="600" y="420">UNREGISTERED</text><text fill="#eeeeee" stroke="none" font-family="Arial" font-size="24px" font-style="normal" font-weight="normal" text-decoration="none" x="600" y="450">UNREGISTERED</text><text fill="#eeeeee" stroke="none" font-family="Arial" font-size="24px" font-style="normal" font-weight="normal" text-decoration="none" x="600" y="480">UNREGISTERED</text><text fill="#eeeeee" stroke="none" font-family="Arial" font-size="24px" font-style="normal" font-weight="normal" text-decoration="none" x="600" y="510">UNREGISTERED</text><text fill="#eeeeee" stroke="none" font-family="Arial" font-size="24px" font-style="normal" font-weight="normal" text-decoration="none" x="600" y="540">UNREGISTERED</text><text fill="#eeeeee" stroke="none" font-family="Arial" font-size="24px" font-style="normal" font-weight="normal" text-decoration="none" x="600" y="570">UNREGISTERED</text><text fill="#eeeeee" stroke="none" font-family="Arial" font-size="24px" font-style="normal" font-weight="normal" text-decoration="none" x="600" y="600">UNREGISTERED</text><text fill="#eeeeee" stroke="none" font-family="Arial" font-size="24px" font-style="normal" font-weight="normal" text-decoration="none" x="600" y="630">UNREGISTERED</text><text fill="#eeeeee" stroke="none" font-family="Arial" font-size="24px" font-style="normal" font-weight="normal" text-decoration="none" x="600" y="660">UNREGISTERED</text><text fill="#eeeeee" stroke="none" font-family="Arial" font-size="24px" font-style="normal" font-weight="normal" text-decoration="none" x="600" y="690">UNREGISTERED</text><text fill="#eeeeee" stroke="none" font-family="Arial" font-size="24px" font-style="normal" font-weight="normal" text-decoration="none" x="600" y="720">UNREGISTERED</text><text fill="#eeeeee" stroke="none" font-family="Arial" font-size="24px" font-style="normal" font-weight="normal" text-decoration="none" x="600" y="750">UNREGISTERED</text><text fill="#eeeeee" stroke="none" font-family="Arial" font-size="24px" font-style="normal" font-weight="normal" text-decoration="none" x="800" y="0">UNREGISTERED</text><text fill="#eeeeee" stroke="none" font-family="Arial" font-size="24px" font-style="normal" font-weight="normal" text-decoration="none" x="800" y="30">UNREGISTERED</text><text fill="#eeeeee" stroke="none" font-family="Arial" font-size="24px" font-style="normal" font-weight="normal" text-decoration="none" x="800" y="60">UNREGISTERED</text><text fill="#eeeeee" stroke="none" font-family="Arial" font-size="24px" font-style="normal" font-weight="normal" text-decoration="none" x="800" y="90">UNREGISTERED</text><text fill="#eeeeee" stroke="none" font-family="Arial" font-size="24px" font-style="normal" font-weight="normal" text-decoration="none" x="800" y="120">UNREGISTERED</text><text fill="#eeeeee" stroke="none" font-family="Arial" font-size="24px" font-style="normal" font-weight="normal" text-decoration="none" x="800" y="150">UNREGISTERED</text><text fill="#eeeeee" stroke="none" font-family="Arial" font-size="24px" font-style="normal" font-weight="normal" text-decoration="none" x="800" y="180">UNREGISTERED</text><text fill="#eeeeee" stroke="none" font-family="Arial" font-size="24px" font-style="normal" font-weight="normal" text-decoration="none" x="800" y="210">UNREGISTERED</text><text fill="#eeeeee" stroke="none" font-family="Arial" font-size="24px" font-style="normal" font-weight="normal" text-decoration="none" x="800" y="240">UNREGISTERED</text><text fill="#eeeeee" stroke="none" font-family="Arial" font-size="24px" font-style="normal" font-weight="normal" text-decoration="none" x="800" y="270">UNREGISTERED</text><text fill="#eeeeee" stroke="none" font-family="Arial" font-size="24px" font-style="normal" font-weight="normal" text-decoration="none" x="800" y="300">UNREGISTERED</text><text fill="#eeeeee" stroke="none" font-family="Arial" font-size="24px" font-style="normal" font-weight="normal" text-decoration="none" x="800" y="330">UNREGISTERED</text><text fill="#eeeeee" stroke="none" font-family="Arial" font-size="24px" font-style="normal" font-weight="normal" text-decoration="none" x="800" y="360">UNREGISTERED</text><text fill="#eeeeee" stroke="none" font-family="Arial" font-size="24px" font-style="normal" font-weight="normal" text-decoration="none" x="800" y="390">UNREGISTERED</text><text fill="#eeeeee" stroke="none" font-family="Arial" font-size="24px" font-style="normal" font-weight="normal" text-decoration="none" x="800" y="420">UNREGISTERED</text><text fill="#eeeeee" stroke="none" font-family="Arial" font-size="24px" font-style="normal" font-weight="normal" text-decoration="none" x="800" y="450">UNREGISTERED</text><text fill="#eeeeee" stroke="none" font-family="Arial" font-size="24px" font-style="normal" font-weight="normal" text-decoration="none" x="800" y="480">UNREGISTERED</text><text fill="#eeeeee" stroke="none" font-family="Arial" font-size="24px" font-style="normal" font-weight="normal" text-decoration="none" x="800" y="510">UNREGISTERED</text><text fill="#eeeeee" stroke="none" font-family="Arial" font-size="24px" font-style="normal" font-weight="normal" text-decoration="none" x="800" y="540">UNREGISTERED</text><text fill="#eeeeee" stroke="none" font-family="Arial" font-size="24px" font-style="normal" font-weight="normal" text-decoration="none" x="800" y="570">UNREGISTERED</text><text fill="#eeeeee" stroke="none" font-family="Arial" font-size="24px" font-style="normal" font-weight="normal" text-decoration="none" x="800" y="600">UNREGISTERED</text><text fill="#eeeeee" stroke="none" font-family="Arial" font-size="24px" font-style="normal" font-weight="normal" text-decoration="none" x="800" y="630">UNREGISTERED</text><text fill="#eeeeee" stroke="none" font-family="Arial" font-size="24px" font-style="normal" font-weight="normal" text-decoration="none" x="800" y="660">UNREGISTERED</text><text fill="#eeeeee" stroke="none" font-family="Arial" font-size="24px" font-style="normal" font-weight="normal" text-decoration="none" x="800" y="690">UNREGISTERED</text><text fill="#eeeeee" stroke="none" font-family="Arial" font-size="24px" font-style="normal" font-weight="normal" text-decoration="none" x="800" y="720">UNREGISTERED</text><text fill="#eeeeee" stroke="none" font-family="Arial" font-size="24px" font-style="normal" font-weight="normal" text-decoration="none" x="800" y="750">UNREGISTERED</text><g transform="translate(-254,-102) scale(1,1)"><rect fill="#C0C0C0" stroke="none" x="463" y="119" width="495" height="751" opacity="0.2"/></g><g transform="translate(-254,-102) scale(1,1)"><rect fill="#ffffff" stroke="none" x="456" y="112" width="495" height="751"/></g><g transform="translate(-254,-102) scale(1,1)"><path fill="none" stroke="#000000" d="M 456 112 L 951 112 L 951 863 L 456 863 L 456 112 Z Z" stroke-miterlimit="10"/></g><g transform="translate(-254,-102) scale(1,1)"><g><path fill="none" stroke="none"/><text fill="#000000" stroke="none" font-family="Arial" font-size="13px" font-style="normal" font-weight="bold" text-decoration="none" x="675.31640625" y="131.5">Pullshoes</text></g></g><g transform="translate(-254,-102) scale(1,1)"><path fill="#ffffff" stroke="none" d="M 281.82 267.2 C 281.82 257.14841664 289.73560473599997 249 299.5 249 C 309.26439526400003 249 317.18 257.14841664 317.18 267.2 C 317.18 277.25158336 309.26439526400003 285.4 299.5 285.4 C 289.73560473599997 285.4 281.82 277.25158336 281.82 267.2 Z"/></g><g transform="translate(-254,-102) scale(1,1)"><path fill="none" stroke="#000000" d="M 281.82 267.2 C 281.82 257.14841664 289.73560473599997 249 299.5 249 C 309.26439526400003 249 317.18 257.14841664 317.18 267.2 C 317.18 277.25158336 309.26439526400003 285.4 299.5 285.4 C 289.73560473599997 285.4 281.82 277.25158336 281.82 267.2 Z" stroke-miterlimit="10"/></g><g transform="translate(-254,-102) scale(1,1)"><path fill="none" stroke="#000000" d="M 299.5 285.4 L 299.5 320.6" stroke-miterlimit="10"/></g><g transform="translate(-254,-102) scale(1,1)"><path fill="none" stroke="#000000" d="M 280.78 298.6 L 318.22 298.6" stroke-miterlimit="10"/></g><g transform="translate(-254,-102) scale(1,1)"><path fill="none" stroke="#000000" d="M 299.5 320.6 L 273.5 357" stroke-miterlimit="10"/></g><g transform="translate(-254,-102) scale(1,1)"><path fill="none" stroke="#000000" d="M 299.5 320.6 L 325.5 357" stroke-miterlimit="10"/></g><g transform="translate(-254,-102) scale(1,1)"><g><path fill="none" stroke="none"/><text fill="#000000" stroke="none" font-family="Arial" font-size="13px" font-style="normal" font-weight="bold" text-decoration="none" x="271.325927734375" y="377.5">Customer</text></g></g><g transform="translate(-254,-102) scale(1,1)"><path fill="#ffffff" stroke="none" d="M 1136.5341818181817 516.56 C 1136.5341818181817 505.75730931199996 1145.025466898618 497 1155.5 497 C 1165.974533101382 497 1174.4658181818183 505.75730931199996 1174.4658181818183 516.56 C 1174.4658181818183 527.3626906879999 1165.974533101382 536.12 1155.5 536.12 C 1145.025466898618 536.12 1136.5341818181817 527.3626906879999 1136.5341818181817 516.56 Z"/></g><g transform="translate(-254,-102) scale(1,1)"><path fill="none" stroke="#000000" d="M 1136.5341818181817 516.56 C 1136.5341818181817 505.75730931199996 1145.025466898618 497 1155.5 497 C 1165.974533101382 497 1174.4658181818183 505.75730931199996 1174.4658181818183 516.56 C 1174.4658181818183 527.3626906879999 1165.974533101382 536.12 1155.5 536.12 C 1145.025466898618 536.12 1136.5341818181817 527.3626906879999 1136.5341818181817 516.56 Z" stroke-miterlimit="10"/></g><g transform="translate(-254,-102) scale(1,1)"><path fill="none" stroke="#000000" d="M 1155.5 536.12 L 1155.5 573.88" stroke-miterlimit="10"/></g><g transform="translate(-254,-102) scale(1,1)"><path fill="none" stroke="#000000" d="M 1135.4185454545454 550.28 L 1175.5814545454546 550.28" stroke-miterlimit="10"/></g><g transform="translate(-254,-102) scale(1,1)"><path fill="none" stroke="#000000" d="M 1155.5 573.88 L 1127.6090909090908 613" stroke-miterlimit="10"/></g><g transform="translate(-254,-102) scale(1,1)"><path fill="none" stroke="#000000" d="M 1155.5 573.88 L 1183.3909090909092 613" stroke-miterlimit="10"/></g><g transform="translate(-254,-102) scale(1,1)"><g><path fill="none" stroke="none"/><text fill="#000000" stroke="none" font-family="Arial" font-size="13px" font-style="normal" font-weight="bold" text-decoration="none" x="1137.075927734375" y="633.5">Admin</text></g></g><g transform="translate(-254,-102) scale(1,1)"><path fill="#C0C0C0" stroke="none" d="M 607 198.5 C 607 176.68475039999998 656.9202448 159 718.5 159 C 780.0797552 159 830 176.68475039999998 830 198.5 C 830 220.31524960000002 780.0797552 238 718.5 238 C 656.9202448 238 607 220.31524960000002 607 198.5 Z" opacity="0.2"/></g><g transform="translate(-254,-102) scale(1,1)"><path fill="#ffffff" stroke="none" d="M 600 191.5 C 600 169.68475039999998 649.9202448 152 711.5 152 C 773.0797552 152 823 169.68475039999998 823 191.5 C 823 213.31524960000002 773.0797552 231 711.5 231 C 649.9202448 231 600 213.31524960000002 600 191.5 Z"/></g><g transform="translate(-254,-102) scale(1,1)"><path fill="none" stroke="#000000" d="M 600 191.5 C 600 169.68475039999998 649.9202448 152 711.5 152 C 773.0797552 152 823 169.68475039999998 823 191.5 C 823 213.31524960000002 773.0797552 231 711.5 231 C 649.9202448 231 600 213.31524960000002 600 191.5 Z" stroke-miterlimit="10"/></g><g transform="translate(-254,-102) scale(1,1)"><g><path fill="none" stroke="none"/><text fill="#000000" stroke="none" font-family="Arial" font-size="13px" font-style="normal" font-weight="bold" text-decoration="none" x="676.819580078125" y="198.5">Place Order</text></g></g><g transform="translate(-254,-102) scale(1,1)"><path fill="#C0C0C0" stroke="none" d="M 607 334.5 C 607 308.266472 655.129384 287 714.5 287 C 773.870616 287 822 308.266472 822 334.5 C 822 360.733528 773.870616 382 714.5 382 C 655.129384 382 607 360.733528 607 334.5 Z" opacity="0.2"/></g><g transform="translate(-254,-102) scale(1,1)"><path fill="#ffffff" stroke="none" d="M 600 327.5 C 600 301.266472 648.129384 280 707.5 280 C 766.870616 280 815 301.266472 815 327.5 C 815 353.733528 766.870616 375 707.5 375 C 648.129384 375 600 353.733528 600 327.5 Z"/></g><g transform="translate(-254,-102) scale(1,1)"><path fill="none" stroke="#000000" d="M 600 327.5 C 600 301.266472 648.129384 280 707.5 280 C 766.870616 280 815 301.266472 815 327.5 C 815 353.733528 766.870616 375 707.5 375 C 648.129384 375 600 353.733528 600 327.5 Z" stroke-miterlimit="10"/></g><g transform="translate(-254,-102) scale(1,1)"><g><path fill="none" stroke="none"/><text fill="#000000" stroke="none" font-family="Arial" font-size="13px" font-style="normal" font-weight="bold" text-decoration="none" x="668.845947265625" y="334.5">Cancel Order</text></g></g><g transform="translate(-254,-102) scale(1,1)"><path fill="#C0C0C0" stroke="none" d="M 607 459 C 607 434.6994688 656.9202448 415 718.5 415 C 780.0797552 415 830 434.6994688 830 459 C 830 483.3005312 780.0797552 503 718.5 503 C 656.9202448 503 607 483.3005312 607 459 Z" opacity="0.2"/></g><g transform="translate(-254,-102) scale(1,1)"><path fill="#ffffff" stroke="none" d="M 600 452 C 600 427.6994688 649.9202448 408 711.5 408 C 773.0797552 408 823 427.6994688 823 452 C 823 476.3005312 773.0797552 496 711.5 496 C 649.9202448 496 600 476.3005312 600 452 Z"/></g><g transform="translate(-254,-102) scale(1,1)"><path fill="none" stroke="#000000" d="M 600 452 C 600 427.6994688 649.9202448 408 711.5 408 C 773.0797552 408 823 427.6994688 823 452 C 823 476.3005312 773.0797552 496 711.5 496 C 649.9202448 496 600 476.3005312 600 452 Z" stroke-miterlimit="10"/></g><g transform="translate(-254,-102) scale(1,1)"><g><path fill="none" stroke="none"/><text fill="#000000" stroke="none" font-family="Arial" font-size="13px" font-style="normal" font-weight="bold" text-decoration="none" x="669.589599609375" y="459">Manage Order</text></g></g><g transform="translate(-254,-102) scale(1,1)"><path fill="#C0C0C0" stroke="none" d="M 615 591 C 615 568.908608 664.4725296 551 725.5 551 C 786.5274704 551 836 568.908608 836 591 C 836 613.091392 786.5274704 631 725.5 631 C 664.4725296 631 615 613.091392 615 591 Z" opacity="0.2"/></g><g transform="translate(-254,-102) scale(1,1)"><path fill="#ffffff" stroke="none" d="M 608 584 C 608 561.908608 657.4725296 544 718.5 544 C 779.5274704 544 829 561.908608 829 584 C 829 606.091392 779.5274704 624 718.5 624 C 657.4725296 624 608 606.091392 608 584 Z"/></g><g transform="translate(-254,-102) scale(1,1)"><path fill="none" stroke="#000000" d="M 608 584 C 608 561.908608 657.4725296 544 718.5 544 C 779.5274704 544 829 561.908608 829 584 C 829 606.091392 779.5274704 624 718.5 624 C 657.4725296 624 608 606.091392 608 584 Z" stroke-miterlimit="10"/></g><g transform="translate(-254,-102) scale(1,1)"><g><path fill="none" stroke="none"/><text fill="#000000" stroke="none" font-family="Arial" font-size="13px" font-style="normal" font-weight="bold" text-decoration="none" x="657.076904296875" y="591">Change Order Status</text></g></g><g transform="translate(-254,-102) scale(1,1)"><path fill="#C0C0C0" stroke="none" d="M 615 726.5 C 615 700.266472 661.3385232 679 718.5 679 C 775.6614768 679 822 700.266472 822 726.5 C 822 752.733528 775.6614768 774 718.5 774 C 661.3385232 774 615 752.733528 615 726.5 Z" opacity="0.2"/></g><g transform="translate(-254,-102) scale(1,1)"><path fill="#ffffff" stroke="none" d="M 608 719.5 C 608 693.266472 654.3385232 672 711.5 672 C 768.6614768 672 815 693.266472 815 719.5 C 815 745.733528 768.6614768 767 711.5 767 C 654.3385232 767 608 745.733528 608 719.5 Z"/></g><g transform="translate(-254,-102) scale(1,1)"><path fill="none" stroke="#000000" d="M 608 719.5 C 608 693.266472 654.3385232 672 711.5 672 C 768.6614768 672 815 693.266472 815 719.5 C 815 745.733528 768.6614768 767 711.5 767 C 654.3385232 767 608 745.733528 608 719.5 Z" stroke-miterlimit="10"/></g><g transform="translate(-254,-102) scale(1,1)"><g><path fill="none" stroke="none"/><text fill="#000000" stroke="none" font-family="Arial" font-size="13px" font-style="normal" font-weight="bold" text-decoration="none" x="663.083251953125" y="726.5">Update Products</text></g></g><g transform="translate(-254,-102) scale(1,1)"><path fill="none" stroke="#000000" d="M 336 304 L 599 225" stroke-miterlimit="10"/></g><g transform="translate(-254,-102) scale(1,1)"><path fill="none" stroke="#000000" d="M 590.4779443455789 231.95518277423022 L 599 225 L 588.0559397530596 223.89205356115974" stroke-miterlimit="10"/></g><g transform="translate(-254,-102) scale(1,1)"><path fill="none" stroke="#000000" d="M 336 316 L 599 324" stroke-miterlimit="10"/></g><g transform="translate(-254,-102) scale(1,1)"><path fill="none" stroke="#000000" d="M 588.7140365213103 327.898583757605 L 599 324 L 588.9700104611551 319.4834404852076" stroke-miterlimit="10"/></g><g transform="translate(-254,-102) scale(1,1)"><path fill="none" stroke="#000000" d="M 336 327 L 599 415" stroke-miterlimit="10"/></g><g transform="translate(-254,-102) scale(1,1)"><path fill="none" stroke="#000000" d="M 588.0267916926642 415.76726751776425 L 599 415 L 590.698229929715 407.78331005930556" stroke-miterlimit="10"/></g><g transform="translate(-254,-102) scale(1,1)"><path fill="none" stroke="#000000" d="M 1111 556 L 824 481" stroke-miterlimit="10"/></g><g transform="translate(-254,-102) scale(1,1)"><path fill="none" stroke="#000000" d="M 834.8967947749966 479.49671571829987 L 824 481 L 832.7681799882396 487.6422149689569" stroke-miterlimit="10"/></g><g transform="translate(-254,-102) scale(1,1)"><path fill="none" stroke="#000000" d="M 1111 543 L 798 376" stroke-miterlimit="10"/></g><g transform="translate(-254,-102) scale(1,1)"><path fill="none" stroke="#000000" d="M 808.9478383218566 377.0699701297178 L 798 376 L 804.9847075823283 384.49787385110926" stroke-miterlimit="10"/></g><g transform="translate(-254,-102) scale(1,1)"><path fill="none" stroke="#000000" d="M 1111 569 L 830 580" stroke-miterlimit="10"/></g><g transform="translate(-254,-102) scale(1,1)"><path fill="none" stroke="#000000" d="M 839.9902378646485 575.3961812147149 L 830 580 L 840.3195564221886 583.8087734573305" stroke-miterlimit="10"/></g><g transform="translate(-254,-102) scale(1,1)"><path fill="none" stroke="#000000" d="M 1111 582 L 816 683" stroke-miterlimit="10"/></g><g transform="translate(-254,-102) scale(1,1)"><path fill="none" stroke="#000000" d="M 824.2512454950814 675.7255963969616 L 816 683 L 826.9782917596034 683.6907315260107" stroke-miterlimit="10"/></g></g></svg>